<?xml version="1.0" encoding="UTF-8" standalone="no"?>
<svg
   xmlns:dc="http://purl.org/dc/elements/1.1/"
   xmlns:cc="http://creativecommons.org/ns#"
   xmlns:rdf="http://www.w3.org/1999/02/22-rdf-syntax-ns#"
   xmlns:svg="http://www.w3.org/2000/svg"
   xmlns="http://www.w3.org/2000/svg"
   xmlns:sodipodi="http://sodipodi.sourceforge.net/DTD/sodipodi-0.dtd"
   xmlns:inkscape="http://www.inkscape.org/namespaces/inkscape"
   version="1.1"
   id="svg833"
   width="88.959999"
   height="30.08"
   viewBox="0 0 88.959999 30.08"
   sodipodi:docname="FluteFingeringChart.svg"
   inkscape:version="1.0.1 (3bc2e813f5, 2020-09-07)">
  <metadata
     id="metadata839">
    <rdf:RDF>
      <cc:Work
         rdf:about="">
        <dc:format>image/svg+xml</dc:format>
        <dc:type
           rdf:resource="http://purl.org/dc/dcmitype/StillImage" />
        <dc:title></dc:title>
      </cc:Work>
    </rdf:RDF>
  </metadata>
  <defs
     id="defs837">
    <inkscape:path-effect
       effect="bspline"
       id="path-effect1085"
       is_visible="true"
       lpeversion="1"
       weight="33.333333"
       steps="2"
       helper_size="0"
       apply_no_weight="true"
       apply_with_weight="true"
       only_selected="false" />
    <inkscape:path-effect
       effect="bspline"
       id="path-effect1056"
       is_visible="true"
       lpeversion="1"
       weight="33.333333"
       steps="2"
       helper_size="0"
       apply_no_weight="true"
       apply_with_weight="true"
       only_selected="false" />
    <inkscape:path-effect
       effect="bspline"
       id="path-effect1009"
       is_visible="true"
       lpeversion="1"
       weight="33.333333"
       steps="2"
       helper_size="0"
       apply_no_weight="true"
       apply_with_weight="true"
       only_selected="false" />
    <inkscape:path-effect
       effect="bspline"
       id="path-effect1005"
       is_visible="true"
       lpeversion="1"
       weight="33.333333"
       steps="2"
       helper_size="0"
       apply_no_weight="true"
       apply_with_weight="true"
       only_selected="false" />
    <inkscape:path-effect
       effect="bspline"
       id="path-effect1001"
       is_visible="true"
       lpeversion="1"
       weight="33.333333"
       steps="2"
       helper_size="0"
       apply_no_weight="true"
       apply_with_weight="true"
       only_selected="false" />
    <inkscape:path-effect
       effect="bspline"
       id="path-effect997"
       is_visible="true"
       lpeversion="1"
       weight="33.333333"
       steps="2"
       helper_size="0"
       apply_no_weight="true"
       apply_with_weight="true"
       only_selected="false" />
    <inkscape:path-effect
       effect="bspline"
       id="path-effect993"
       is_visible="true"
       lpeversion="1"
       weight="33.333333"
       steps="2"
       helper_size="0"
       apply_no_weight="true"
       apply_with_weight="true"
       only_selected="false" />
  </defs>
  <sodipodi:namedview
     pagecolor="#ffffff"
     bordercolor="#666666"
     borderopacity="1"
     objecttolerance="10"
     gridtolerance="10"
     guidetolerance="10"
     inkscape:pageopacity="0"
     inkscape:pageshadow="2"
     inkscape:window-width="1356"
     inkscape:window-height="717"
     id="namedview835"
     showgrid="false"
     inkscape:zoom="7.1389509"
     inkscape:cx="49.947265"
     inkscape:cy="6.0444432"
     inkscape:window-x="0"
     inkscape:window-y="20"
     inkscape:window-maximized="1"
     inkscape:current-layer="g841" />
  <g
     inkscape:groupmode="layer"
     inkscape:label="Image"
     id="g841">
    <circle
       style="fill:#ffffff;fill-opacity:1;stroke:#000000;stroke-width:0.944882;stroke-miterlimit:4;stroke-dasharray:none;stroke-opacity:1"
       id="path859-6-7-5"
       cx="41.680759"
       cy="12.85598"
       r="3.7410514"
       transform="rotate(-0.9907091)" />
    <circle
       style="fill:#ffffff;fill-opacity:1;stroke:#000000;stroke-width:0.944882;stroke-miterlimit:4;stroke-dasharray:none;stroke-opacity:1"
       id="path859-6-7-5-3"
       cx="51.58392"
       cy="13.027234"
       r="3.7410514"
       transform="rotate(-0.9907091)" />
    <circle
       style="fill:#ffffff;fill-opacity:1;stroke:#000000;stroke-width:0.944882;stroke-miterlimit:4;stroke-dasharray:none;stroke-opacity:1"
       id="path859-6-7-5-3-5"
       cx="61.763115"
       cy="13.203261"
       r="3.7410514"
       transform="rotate(-0.9907091)" />
    <circle
       style="fill:#ffffff;fill-opacity:1;stroke:#000000;stroke-width:0.944882;stroke-miterlimit:4;stroke-dasharray:none;stroke-opacity:1"
       id="path957"
       cx="15.11857"
       cy="22.532701"
       r="2.2720544" />
    <path
       style="fill:#ffffff;fill-opacity:1;stroke:#000000;stroke-width:0.944882;stroke-linecap:butt;stroke-linejoin:miter;stroke-miterlimit:4;stroke-dasharray:none;stroke-opacity:1"
       d="m 20.044377,21.732644 c -0.0051,0.41755 -0.01023,0.835704 0.138427,1.198768 0.148654,0.363063 0.450347,0.671511 0.781104,0.891413 0.330758,0.219901 0.690337,0.351626 1.150665,0.410157 0.460328,0.05853 1.021494,0.04423 1.640799,-0.05272 0.619306,-0.09695 1.296904,-0.276382 2.020144,-0.495239 0.723241,-0.218856 1.492172,-0.477105 2.475302,-0.713333 0.98313,-0.236229 2.18027,-0.45049 2.962676,-0.57174 0.782406,-0.121251 1.185464,-0.152284 0.958785,-0.236464 -0.226679,-0.08418 -1.065446,-0.223078 -1.913057,-0.379211 -0.847611,-0.156133 -1.704024,-0.329526 -2.499851,-0.524953 -0.795826,-0.195427 -1.53102,-0.412961 -2.147275,-0.55221 -0.616255,-0.139249 -1.113471,-0.200031 -1.681199,-0.240742 -0.567728,-0.04071 -1.205912,-0.06127 -1.778668,-0.0034 -0.572756,0.05789 -1.079823,0.194427 -1.420435,0.419262 -0.340613,0.224835 -0.51398,0.537546 -0.687417,0.850383 0,0 0,-1e-6 0,-1e-6 z"
       id="path991"
       inkscape:path-effect="#path-effect993"
       inkscape:original-d="m 20.044377,21.732644 c 0,0 -0.0094,0.835714 -0.01533,1.252649 0.302527,0.309069 0.60422,0.617517 0.905096,0.925362 0.360422,0.132345 0.720001,0.26407 1.078759,0.395183 0.562015,-0.01369 1.123181,-0.02799 1.683529,-0.04291 0.678453,-0.178829 1.356051,-0.358266 2.032834,-0.538321 0.769761,-0.257635 1.538693,-0.515883 2.306798,-0.774748 1.198017,-0.213655 2.395157,-0.427917 3.591494,-0.642797 0.368177,-0.03052 0.771453,-0.05872 1.155938,-0.089 -0.837972,-0.138289 -1.676739,-0.277187 -2.516352,-0.416702 -0.855619,-0.172786 -1.712032,-0.346179 -2.569291,-0.52019 -0.734408,-0.216932 -1.469601,-0.434467 -2.205666,-0.652628 -0.496407,-0.06017 -0.993623,-0.120952 -1.491679,-0.182351 -0.637357,-0.01994 -1.275541,-0.0405 -1.914554,-0.06167 -0.50627,0.137155 -1.013337,0.273687 -1.521265,0.409614 -0.172612,0.313458 -0.520311,0.93851 -0.520311,0.93851 z"
       sodipodi:nodetypes="cccccccccccccccc" />
    <path
       style="fill:none;stroke:#000000;stroke-width:0.944882;stroke-linecap:butt;stroke-linejoin:miter;stroke-miterlimit:4;stroke-dasharray:none;stroke-opacity:1"
       d="m 66.872765,17.504427 c 0.0261,0.27869 0.07818,0.834941 0.322229,1.294869 0.244047,0.459927 0.679065,0.823746 1.218038,1.045296 0.538973,0.221551 1.181877,0.301588 1.736014,0.269501 0.554136,-0.03209 1.019963,-0.175984 1.347218,-0.341326 0.327255,-0.165342 0.516535,-0.35234 0.613988,-0.505989 0.09745,-0.153648 0.103136,-0.276143 0.179799,-1.440219 0.07666,-1.164075 0.224351,-3.370238 0.208495,-4.665664 -0.01586,-1.295426 -0.195884,-1.680289 -0.367873,-1.876853 -0.17199,-0.196564 -0.336344,-0.203641 -0.48072,-0.187995 -0.144376,0.01565 -0.268334,0.05423 -0.389845,0.246609 -0.121511,0.192377 -0.239776,0.537705 -0.355981,0.86629 -0.116204,0.328584 -0.230336,0.640434 -0.31132,0.83596 -0.08098,0.195525 -0.128819,0.274965 -0.433947,0.398773 -0.305128,0.123809 -0.868314,0.292497 -1.390388,0.593833 -0.522075,0.301336 -0.998936,0.731973 -1.312375,1.285839 -0.313438,0.553865 -0.46152,1.228545 -0.535475,1.565489 -0.07395,0.336945 -0.07395,0.336897 -0.04786,0.615587 z"
       id="path995"
       inkscape:path-effect="#path-effect997"
       inkscape:original-d="m 66.846669,17.225737 c 0.05304,0.557301 0.10512,1.113552 0.156259,1.668753 0.435985,0.364886 0.871003,0.728705 1.305087,1.091481 0.643876,0.08109 1.28678,0.161126 1.928752,0.240115 0.466794,-0.142852 0.932621,-0.286749 1.397512,-0.431702 0.190233,-0.185954 0.379514,-0.372951 0.567849,-0.561004 0.0095,-0.120068 0.01224,-0.2427 0.01696,-0.365627 0.148635,-2.205202 0.296329,-4.411364 0.443069,-6.618623 -0.179108,-0.383829 -0.359129,-0.768695 -0.540099,-1.154618 -0.163415,-0.0061 -0.32777,-0.01317 -0.49308,-0.02123 -0.123018,0.03964 -0.246978,0.07822 -0.371887,0.115758 -0.117329,0.346392 -0.235591,0.691721 -0.354805,1.036006 -0.113192,0.312913 -0.227322,0.624763 -0.342401,0.935569 -0.04691,0.08051 -0.09474,0.159952 -0.143525,0.238352 -0.562262,0.169744 -1.125447,0.338433 -1.689591,0.506074 -0.477371,0.43713 -0.956284,0.865495 -1.435846,1.296664 -0.147142,0.675757 -0.295224,1.350437 -0.444255,2.02408 z" />
    <path
       style="fill:#ffffff;fill-opacity:1;stroke:#000000;stroke-width:0.944882;stroke-linecap:butt;stroke-linejoin:miter;stroke-miterlimit:4;stroke-dasharray:none;stroke-opacity:1"
       d="m 74.41551,11.222959 c 0.06757,-0.03309 0.202202,-0.09904 0.34906,-0.157371 0.146859,-0.05833 0.305752,-0.109059 1.21874,-0.135651 0.912988,-0.02659 2.579682,-0.02926 3.490213,-0.02075 0.910531,0.0085 1.074221,0.02925 1.221765,0.09187 0.147544,0.06262 0.283728,0.167064 0.358534,0.309791 0.07481,0.142726 0.08917,0.323635 0.09105,0.482951 0.0019,0.159315 -0.0092,0.305347 -0.07529,0.434664 -0.06607,0.129317 -0.187603,0.246822 -0.387918,0.361584 -0.200314,0.114762 -0.479865,0.226892 -1.473165,0.285626 -0.993299,0.05873 -2.700683,0.06384 -3.652583,-0.0039 -0.9519,-0.06775 -1.148308,-0.2091 -1.262225,-0.35099 -0.113916,-0.141889 -0.144509,-0.284529 -0.121714,-0.495531 0.0228,-0.211002 0.09931,-0.489873 0.137637,-0.629551 0.03833,-0.139677 0.03833,-0.139629 0.105893,-0.172725 z"
       id="path999"
       inkscape:path-effect="#path-effect1001"
       inkscape:original-d="m 74.347945,11.256055 c 0.135636,-0.06516 0.270272,-0.131109 0.403908,-0.197846 0.159898,-0.04994 0.31879,-0.100676 0.476685,-0.152195 1.667761,-0.0019 3.334455,-0.0045 5.000182,-0.008 0.155924,0.01503 0.318942,0.04107 0.476912,0.06043 0.13719,0.105241 0.273374,0.209688 0.408561,0.313351 0.01537,0.181703 0.02973,0.362612 0.0431,0.542735 -0.007,0.138851 -0.02058,0.284694 -0.03237,0.425857 -0.120535,0.118298 -0.242064,0.235803 -0.364596,0.352521 -0.278563,0.112923 -0.558114,0.225054 -0.83867,0.336397 -1.706452,0.0059 -3.413836,0.011 -5.122253,0.01531 -0.195417,-0.140566 -0.391826,-0.281914 -0.589238,-0.424053 -0.02959,-0.141856 -0.06019,-0.284495 -0.09178,-0.427925 0.07752,-0.278094 0.154037,-0.556965 0.229556,-0.83663 z" />
    <path
       style="fill:#ffffff;fill-opacity:1;stroke:#000000;stroke-width:0.944882;stroke-linecap:butt;stroke-linejoin:miter;stroke-miterlimit:4;stroke-dasharray:none;stroke-opacity:1"
       d="m 75.797669,17.129873 c 0.822653,-0.01519 2.466976,-0.04555 3.378205,-0.05259 0.911229,-0.007 1.089282,0.0091 1.274848,0.115582 0.185565,0.106478 0.378809,0.302473 0.470115,0.46802 0.0913,0.165547 0.0816,0.300822 0.0321,0.45534 -0.04951,0.154519 -0.138751,0.328766 -0.535644,0.663796 -0.396893,0.335029 -1.101814,0.831246 -1.61703,1.12557 -0.515216,0.294323 -0.84112,0.386734 -1.291531,0.434794 -0.45041,0.04806 -1.026491,0.05158 -1.459129,0.04915 -0.432638,-0.0024 -0.722295,-0.01082 -0.986552,-0.142746 -0.264257,-0.131925 -0.5048,-0.390263 -0.681574,-0.632555 -0.176774,-0.242292 -0.29036,-0.469636 -0.350981,-0.722941 -0.06062,-0.253305 -0.06778,-0.532339 -0.009,-0.766207 0.05874,-0.233869 0.183452,-0.421831 0.353603,-0.577667 0.17015,-0.155836 0.385259,-0.279214 0.492608,-0.340786 0.10735,-0.06157 0.107349,-0.06158 0.930003,-0.07676 z"
       id="path1003"
       inkscape:path-effect="#path-effect1005"
       inkscape:original-d="m 74.975015,17.14506 c 1.645322,-0.02957 3.289645,-0.05993 4.932967,-0.09107 0.179059,0.01693 0.357111,0.03309 0.534166,0.04845 0.194252,0.196792 0.387496,0.392787 0.579745,0.587998 -0.0087,0.136069 -0.0184,0.271344 -0.0291,0.405833 -0.08825,0.175042 -0.177495,0.349289 -0.267742,0.522752 -0.703949,0.497025 -1.40887,0.993242 -2.114805,1.488681 -0.324918,0.0932 -0.650822,0.185613 -0.977733,0.277237 -0.574191,0.0035 -1.150267,0.0078 -1.726901,0.01054 -0.288669,-0.0076 -0.578326,-0.016 -0.868989,-0.02519 -0.234867,-0.258182 -0.47823,-0.513895 -0.718845,-0.772025 -0.11259,-0.226564 -0.226176,-0.453907 -0.340764,-0.682042 -0.0062,-0.278257 -0.01332,-0.557292 -0.02148,-0.83712 0.125718,-0.187182 0.250431,-0.375144 0.374146,-0.563899 0.216116,-0.122594 0.431224,-0.245973 0.645336,-0.370141 z" />
    <path
       style="fill:none;stroke:#000000;stroke-width:0.944882;stroke-linecap:round;stroke-linejoin:round;stroke-miterlimit:4;stroke-dasharray:none;stroke-opacity:1"
       d="M 34.78133,17.439912 34.659173,7.1130548 Z"
       id="path1031" />
    <circle
       style="fill:#ffffff;fill-opacity:1;stroke:#000000;stroke-width:0.944882;stroke-miterlimit:4;stroke-dasharray:none;stroke-opacity:1"
       id="path859-6-7-5-2"
       cx="7.7988396"
       cy="12.766482"
       r="2.5527751"
       transform="rotate(-0.9907091)" />
    <circle
       style="fill:#ffffff;fill-opacity:1;stroke:#000000;stroke-width:0.944882;stroke-miterlimit:4;stroke-dasharray:none;stroke-opacity:1"
       id="path859-6-7-5-3-9"
       cx="17.009819"
       cy="12.900794"
       r="3.7410514"
       transform="rotate(-0.9907091)" />
    <circle
       style="fill:#ffffff;fill-opacity:1;stroke:#000000;stroke-width:0.944882;stroke-miterlimit:4;stroke-dasharray:none;stroke-opacity:1"
       id="path859-6-7-5-3-5-1"
       cx="27.189011"
       cy="13.076821"
       r="3.7410514"
       transform="rotate(-0.9907091)" />
    <path
       style="fill:none;stroke:#000000;stroke-width:0.944882;stroke-linecap:butt;stroke-linejoin:miter;stroke-miterlimit:4;stroke-dasharray:none;stroke-opacity:1"
       d="m 28.469314,1.9724979 c -1.126347,0.094406 -2.341914,0.2623466 -2.856076,0.7116692 -0.514163,0.4493225 -0.325717,1.1783956 0.291681,1.4604103 0.617398,0.2820147 1.662523,0.1185909 2.283608,0.1405736 0.621084,0.021983 0.818289,0.2277197 1.109688,0.6219593 0.291398,0.3942395 0.677311,0.9768418 1.042953,1.7959899 0.365642,0.8191481 0.711523,1.8748611 1.184409,2.3353528 0.472885,0.4604918 1.071778,0.327512 1.117726,-0.9634482 C 32.689252,6.7840445 32.177145,4.3031146 31.40488,3.0800776 30.632615,1.8570407 29.595661,1.8780922 28.469314,1.9724979 Z"
       id="path1054"
       inkscape:path-effect="#path-effect1056"
       inkscape:original-d="m 28.556969,1.899179 c -1.213829,0.1689744 -2.429397,0.336912 -3.646705,0.5038231 0.19019,0.7301312 0.378638,1.4592037 0.565348,2.187261 1.046904,-0.1624008 2.092029,-0.3258245 3.135437,-0.4902812 0.198954,0.2067758 0.396159,0.4125134 0.591631,0.6172258 0.387668,0.5836554 0.773581,1.1662578 1.157763,1.7478422 0.347628,1.0567854 0.693513,2.1124969 1.037662,3.1672 0.600657,-0.131956 1.19955,-0.264935 1.796716,-0.3989479 -0.48627,-2.4532412 -1.016213,-4.9304895 -1.526927,-7.3972788 -1.035257,0.022082 -2.072211,0.043134 -3.110925,0.063156 z" />
    <path
       style="fill:#ffffff;fill-opacity:1;stroke:#000000;stroke-width:0.944882;stroke-linecap:butt;stroke-linejoin:miter;stroke-miterlimit:4;stroke-dasharray:none;stroke-opacity:1"
       d="m 74.50532,14.348029 c 0.06757,-0.0331 0.202202,-0.09904 0.34906,-0.157371 0.146859,-0.05833 0.305752,-0.109059 1.21874,-0.135651 0.912988,-0.02659 2.579682,-0.02926 3.490213,-0.02075 0.910531,0.0085 1.074221,0.02925 1.221765,0.09187 0.147544,0.06262 0.283728,0.167064 0.358534,0.309791 0.07481,0.142726 0.08917,0.323635 0.09105,0.482951 0.0019,0.159315 -0.0092,0.305347 -0.07529,0.434664 -0.06607,0.129317 -0.187603,0.246822 -0.387918,0.361584 -0.200314,0.114762 -0.479865,0.226892 -1.473165,0.285626 -0.993299,0.05873 -2.700683,0.06384 -3.652583,-0.0039 -0.9519,-0.06775 -1.148308,-0.2091 -1.262225,-0.35099 -0.113916,-0.141889 -0.144509,-0.284529 -0.121714,-0.495531 0.0228,-0.211002 0.09931,-0.489873 0.137637,-0.629551 0.03833,-0.139677 0.03833,-0.139629 0.105893,-0.172725 z"
       id="path999-2"
       inkscape:path-effect="#path-effect1085"
       inkscape:original-d="m 74.437755,14.381125 c 0.135636,-0.06516 0.270272,-0.131109 0.403908,-0.197846 0.159898,-0.04994 0.31879,-0.100676 0.476685,-0.152195 1.667761,-0.0019 3.334455,-0.0045 5.000182,-0.008 0.155924,0.01503 0.318942,0.04107 0.476912,0.06043 0.13719,0.105241 0.273374,0.209688 0.408561,0.313351 0.01537,0.181703 0.02973,0.362612 0.0431,0.542735 -0.007,0.138851 -0.02058,0.284694 -0.03237,0.425857 -0.120535,0.118298 -0.242064,0.235803 -0.364596,0.352521 -0.278563,0.112923 -0.558114,0.225054 -0.83867,0.336397 -1.706452,0.0059 -3.413836,0.011 -5.122253,0.01531 -0.195417,-0.140566 -0.391826,-0.281914 -0.589238,-0.424053 -0.02959,-0.141856 -0.06019,-0.284495 -0.09178,-0.427925 0.07752,-0.278094 0.154037,-0.556965 0.229556,-0.83663 z" />
  </g>
</svg>
