<svg id="artistry-aint-dead" viewBox="-400 -500 800 800" xmlns="http://www.w3.org/2000/svg"><circle cx="200.0" cy="3" fill="transparent" r="0.0" stroke="white"></circle><circle cx="199.6053456856543" cy="3" fill="transparent" r="12.558103905862675" stroke="white"></circle><circle cx="198.42294026289557" cy="3" fill="transparent" r="25.06664671286085" stroke="white"></circle><circle cx="196.45745014573774" cy="3" fill="transparent" r="37.47626291714493" stroke="white"></circle><circle cx="193.71663222572622" cy="3" fill="transparent" r="49.73797743297096" stroke="white"></circle><circle cx="190.2113032590307" cy="3" fill="transparent" r="61.803398874989476" stroke="white"></circle><circle cx="185.95529717765027" cy="3" fill="transparent" r="73.6249105369356" stroke="white"></circle><circle cx="180.9654104932039" cy="3" fill="transparent" r="85.15585831301453" stroke="white"></circle><circle cx="175.26133600877273" cy="3" fill="transparent" r="96.35073482034306" stroke="white"></circle><circle cx="168.86558510040302" cy="3" fill="transparent" r="107.16535899579934" stroke="white"></circle><circle cx="161.80339887498948" cy="3" fill="transparent" r="117.55705045849463" stroke="white"></circle><circle cx="154.10264855515783" cy="3" fill="transparent" r="127.48479794973795" stroke="white"></circle><circle cx="145.7937254842823" cy="3" fill="transparent" r="136.90942118573776" stroke="white"></circle><circle cx="136.90942118573776" cy="3" fill="transparent" r="145.79372548428228" stroke="white"></circle><circle cx="127.48479794973795" cy="3" fill="transparent" r="154.10264855515786" stroke="white"></circle><circle cx="117.55705045849463" cy="3" fill="transparent" r="161.80339887498948" stroke="white"></circle><circle cx="107.16535899579931" cy="3" fill="transparent" r="168.86558510040302" stroke="white"></circle><circle cx="96.35073482034304" cy="3" fill="transparent" r="175.26133600877273" stroke="white"></circle><circle cx="85.15585831301453" cy="3" fill="transparent" r="180.9654104932039" stroke="white"></circle><circle cx="73.62491053693557" cy="3" fill="transparent" r="185.9552971776503" stroke="white"></circle><circle cx="61.80339887498949" cy="3" fill="transparent" r="190.2113032590307" stroke="white"></circle><circle cx="49.73797743297099" cy="3" fill="transparent" r="193.71663222572622" stroke="white"></circle><circle cx="37.4762629171449" cy="3" fill="transparent" r="196.45745014573774" stroke="white"></circle><circle cx="25.06664671286085" cy="3" fill="transparent" r="198.42294026289557" stroke="white"></circle><circle cx="12.55810390586266" cy="3" fill="transparent" r="199.6053456856543" stroke="white"></circle><circle cx="1.2246467991473532E-14" cy="3" fill="transparent" r="200.0" stroke="white"></circle><circle cx="-12.558103905862636" cy="3" fill="transparent" r="199.6053456856543" stroke="white"></circle><circle cx="-25.066646712860873" cy="3" fill="transparent" r="198.42294026289557" stroke="white"></circle><circle cx="-37.47626291714492" cy="3" fill="transparent" r="196.45745014573774" stroke="white"></circle><circle cx="-49.73797743297097" cy="3" fill="transparent" r="193.71663222572622" stroke="white"></circle><circle cx="-61.80339887498947" cy="3" fill="transparent" r="190.21130325903073" stroke="white"></circle><circle cx="-73.62491053693554" cy="3" fill="transparent" r="185.9552971776503" stroke="white"></circle><circle cx="-85.15585831301455" cy="3" fill="transparent" r="180.9654104932039" stroke="white"></circle><circle cx="-96.350734820343" cy="3" fill="transparent" r="175.26133600877273" stroke="white"></circle><circle cx="-107.16535899579938" cy="3" fill="transparent" r="168.865585100403" stroke="white"></circle><circle cx="-117.5570504584946" cy="3" fill="transparent" r="161.80339887498948" stroke="white"></circle><circle cx="-127.48479794973795" cy="3" fill="transparent" r="154.10264855515786" stroke="white"></circle><circle cx="-136.90942118573767" cy="3" fill="transparent" r="145.79372548428236" stroke="white"></circle><circle cx="-145.79372548428233" cy="3" fill="transparent" r="136.9094211857377" stroke="white"></circle><circle cx="-154.10264855515788" cy="3" fill="transparent" r="127.48479794973791" stroke="white"></circle><circle cx="-161.80339887498945" cy="3" fill="transparent" r="117.55705045849464" stroke="white"></circle><circle cx="-168.86558510040302" cy="3" fill="transparent" r="107.16535899579934" stroke="white"></circle><circle cx="-175.2613360087727" cy="3" fill="transparent" r="96.35073482034312" stroke="white"></circle><circle cx="-180.9654104932039" cy="3" fill="transparent" r="85.1558583130145" stroke="white"></circle><circle cx="-185.9552971776503" cy="3" fill="transparent" r="73.62491053693554" stroke="white"></circle><circle cx="-190.2113032590307" cy="3" fill="transparent" r="61.803398874989504" stroke="white"></circle><circle cx="-193.71663222572622" cy="3" fill="transparent" r="49.737977432970965" stroke="white"></circle><circle cx="-196.4574501457377" cy="3" fill="transparent" r="37.476262917145" stroke="white"></circle><circle cx="-198.42294026289557" cy="3" fill="transparent" r="25.06664671286082" stroke="white"></circle><circle cx="-199.6053456856543" cy="3" fill="transparent" r="12.558103905862627" stroke="white"></circle><circle cx="-200.0" cy="3" fill="transparent" r="2.4492935982947064E-14" stroke="white"></circle><circle cx="-199.6053456856543" cy="3" fill="transparent" r="-12.55810390586267" stroke="white"></circle><circle cx="-198.42294026289557" cy="3" fill="transparent" r="-25.06664671286077" stroke="white"></circle><circle cx="-196.4574501457377" cy="3" fill="transparent" r="-37.47626291714495" stroke="white"></circle><circle cx="-193.71663222572622" cy="3" fill="transparent" r="-49.737977432971" stroke="white"></circle><circle cx="-190.21130325903073" cy="3" fill="transparent" r="-61.803398874989455" stroke="white"></circle><circle cx="-185.9552971776503" cy="3" fill="transparent" r="-73.62491053693559" stroke="white"></circle><circle cx="-180.96541049320393" cy="3" fill="transparent" r="-85.15585831301445" stroke="white"></circle><circle cx="-175.26133600877273" cy="3" fill="transparent" r="-96.35073482034308" stroke="white"></circle><circle cx="-168.865585100403" cy="3" fill="transparent" r="-107.16535899579935" stroke="white"></circle><circle cx="-161.80339887498948" cy="3" fill="transparent" r="-117.5570504584946" stroke="white"></circle><circle cx="-154.10264855515786" cy="3" fill="transparent" r="-127.48479794973792" stroke="white"></circle><circle cx="-145.79372548428236" cy="3" fill="transparent" r="-136.90942118573767" stroke="white"></circle><circle cx="-136.90942118573773" cy="3" fill="transparent" r="-145.7937254842823" stroke="white"></circle><circle cx="-127.48479794973791" cy="3" fill="transparent" r="-154.10264855515788" stroke="white"></circle><circle cx="-117.55705045849464" cy="3" fill="transparent" r="-161.80339887498945" stroke="white"></circle><circle cx="-107.16535899579942" cy="3" fill="transparent" r="-168.86558510040297" stroke="white"></circle><circle cx="-96.35073482034305" cy="3" fill="transparent" r="-175.26133600877273" stroke="white"></circle><circle cx="-85.15585831301443" cy="3" fill="transparent" r="-180.96541049320396" stroke="white"></circle><circle cx="-73.62491053693556" cy="3" fill="transparent" r="-185.9552971776503" stroke="white"></circle><circle cx="-61.80339887498951" cy="3" fill="transparent" r="-190.2113032590307" stroke="white"></circle><circle cx="-49.73797743297106" cy="3" fill="transparent" r="-193.7166322257262" stroke="white"></circle><circle cx="-37.47626291714493" cy="3" fill="transparent" r="-196.45745014573774" stroke="white"></circle><circle cx="-25.066646712860745" cy="3" fill="transparent" r="-198.42294026289557" stroke="white"></circle><circle cx="-12.558103905862819" cy="3" fill="transparent" r="-199.6053456856543" stroke="white"></circle><circle cx="-3.6739403974420595E-14" cy="3" fill="transparent" r="-200.0" stroke="white"></circle><circle cx="12.558103905862744" cy="3" fill="transparent" r="-199.6053456856543" stroke="white"></circle><circle cx="25.066646712860845" cy="3" fill="transparent" r="-198.42294026289557" stroke="white"></circle><circle cx="37.47626291714503" cy="3" fill="transparent" r="-196.4574501457377" stroke="white"></circle><circle cx="49.737977432970816" cy="3" fill="transparent" r="-193.71663222572627" stroke="white"></circle><circle cx="61.80339887498945" cy="3" fill="transparent" r="-190.21130325903073" stroke="white"></circle><circle cx="73.62491053693564" cy="3" fill="transparent" r="-185.95529717765024" stroke="white"></circle><circle cx="85.15585831301452" cy="3" fill="transparent" r="-180.9654104932039" stroke="white"></circle><circle cx="96.35073482034315" cy="3" fill="transparent" r="-175.26133600877267" stroke="white"></circle><circle cx="107.1653589957992" cy="3" fill="transparent" r="-168.8655851004031" stroke="white"></circle><circle cx="117.55705045849459" cy="3" fill="transparent" r="-161.8033988749895" stroke="white"></circle><circle cx="127.484797949738" cy="3" fill="transparent" r="-154.1026485551578" stroke="white"></circle><circle cx="136.90942118573773" cy="3" fill="transparent" r="-145.7937254842823" stroke="white"></circle><circle cx="145.7937254842824" cy="3" fill="transparent" r="-136.90942118573764" stroke="white"></circle><circle cx="154.10264855515777" cy="3" fill="transparent" r="-127.48479794973807" stroke="white"></circle><circle cx="161.80339887498945" cy="3" fill="transparent" r="-117.55705045849467" stroke="white"></circle><circle cx="168.86558510040302" cy="3" fill="transparent" r="-107.16535899579927" stroke="white"></circle><circle cx="175.26133600877273" cy="3" fill="transparent" r="-96.35073482034306" stroke="white"></circle><circle cx="180.96541049320393" cy="3" fill="transparent" r="-85.15585831301445" stroke="white"></circle><circle cx="185.95529717765024" cy="3" fill="transparent" r="-73.62491053693574" stroke="white"></circle><circle cx="190.2113032590307" cy="3" fill="transparent" r="-61.803398874989526" stroke="white"></circle><circle cx="193.71663222572624" cy="3" fill="transparent" r="-49.7379774329709" stroke="white"></circle><circle cx="196.45745014573774" cy="3" fill="transparent" r="-37.476262917144936" stroke="white"></circle><circle cx="198.42294026289557" cy="3" fill="transparent" r="-25.066646712860756" stroke="white"></circle><circle cx="199.6053456856543" cy="3" fill="transparent" r="-12.558103905862831" stroke="white"></circle><circle cx="200.0" cy="3" fill="transparent" r="-4.898587196589413E-14" stroke="white"></circle></svg>