<svg id="artistry-aint-dead" viewBox="-400 -400 800 800" xmlns="http://www.w3.org/2000/svg"><style>g line {stroke: black;}
g#a circle {
stroke: url(#gradientA);
fill: url(#gradientA);}
g#b circle {
stroke: url(#gradientB);
fill: url(#gradientB);}
g#a circle:hover {
stroke: black;
fill: url(#gradientA);
stroke-width: 4px;
}
g#b circle:hover {
stroke: black;
fill: url(#gradientB);
stroke-width: 4px;
}
g#c circle {
stroke: url(#gradientC);
fill: url(#gradientC);}
</style><linearGradient id="gradientA" x1="0%" x2="100%" y1="0%" y2="100%"><stop offset="0%" stop-color="#fff"></stop><stop offset="100%" stop-color="#e1e"></stop></linearGradient><linearGradient id="gradientB" x1="0%" x2="100%" y1="0%" y2="100%"><stop offset="0%" stop-color="#b3f"></stop><stop offset="100%" stop-color="#d20"></stop></linearGradient><linearGradient id="gradientC" x1="0%" x2="100%" y1="0%" y2="100%"><stop offset="0%" stop-color="#FD3"></stop><stop offset="100%" stop-color="#d2D"></stop></linearGradient><g transform="rotate(90 0 0)"><line x1="113" x2="100" y1="0" y2="53"></line><line x1="113" x2="64" y1="0" y2="93"></line><line x1="113" x2="14" y1="0" y2="112"></line><line x1="113" x2="-40" y1="0" y2="106"></line><line x1="113" x2="-85" y1="0" y2="75"></line><line x1="113" x2="-110" y1="0" y2="27"></line><line x1="113" x2="-110" y1="0" y2="-27"></line><line x1="113" x2="-85" y1="0" y2="-75"></line><line x1="113" x2="-40" y1="0" y2="-106"></line><line x1="113" x2="14" y1="0" y2="-112"></line><line x1="113" x2="64" y1="0" y2="-93"></line><line x1="113" x2="100" y1="0" y2="-53"></line><line x1="113" x2="107" y1="0" y2="0"></line><line x1="113" x2="67" y1="0" y2="84"></line><line x1="113" x2="-24" y1="0" y2="104"></line><line x1="113" x2="-96" y1="0" y2="46"></line><line x1="113" x2="-96" y1="0" y2="-46"></line><line x1="113" x2="-24" y1="0" y2="-104"></line><line x1="113" x2="67" y1="0" y2="-84"></line><line x1="113" x2="103" y1="0" y2="0"></line><line x1="113" x2="-51" y1="0" y2="89"></line><line x1="113" x2="-52" y1="0" y2="-89"></line><line x1="113" x2="109" y1="0" y2="0"></line><line x1="113" x2="83" y1="0" y2="70"></line><line x1="113" x2="19" y1="0" y2="107"></line><line x1="113" x2="-54" y1="0" y2="94"></line><line x1="113" x2="-102" y1="0" y2="37"></line><line x1="113" x2="-102" y1="0" y2="-37"></line><line x1="113" x2="-55" y1="0" y2="-94"></line><line x1="113" x2="19" y1="0" y2="-107"></line><line x1="113" x2="83" y1="0" y2="-70"></line><line x1="100" x2="64" y1="53" y2="93"></line><line x1="100" x2="14" y1="53" y2="112"></line><line x1="100" x2="-40" y1="53" y2="106"></line><line x1="100" x2="-85" y1="53" y2="75"></line><line x1="100" x2="-110" y1="53" y2="27"></line><line x1="100" x2="-110" y1="53" y2="-27"></line><line x1="100" x2="-85" y1="53" y2="-75"></line><line x1="100" x2="-40" y1="53" y2="-106"></line><line x1="100" x2="14" y1="53" y2="-112"></line><line x1="100" x2="64" y1="53" y2="-93"></line><line x1="100" x2="100" y1="53" y2="-53"></line><line x1="100" x2="107" y1="53" y2="0"></line><line x1="100" x2="67" y1="53" y2="84"></line><line x1="100" x2="-24" y1="53" y2="104"></line><line x1="100" x2="-96" y1="53" y2="46"></line><line x1="100" x2="-96" y1="53" y2="-46"></line><line x1="100" x2="-24" y1="53" y2="-104"></line><line x1="100" x2="67" y1="53" y2="-84"></line><line x1="100" x2="103" y1="53" y2="0"></line><line x1="100" x2="-51" y1="53" y2="89"></line><line x1="100" x2="-52" y1="53" y2="-89"></line><line x1="100" x2="109" y1="53" y2="0"></line><line x1="100" x2="83" y1="53" y2="70"></line><line x1="100" x2="19" y1="53" y2="107"></line><line x1="100" x2="-54" y1="53" y2="94"></line><line x1="100" x2="-102" y1="53" y2="37"></line><line x1="100" x2="-102" y1="53" y2="-37"></line><line x1="100" x2="-55" y1="53" y2="-94"></line><line x1="100" x2="19" y1="53" y2="-107"></line><line x1="100" x2="83" y1="53" y2="-70"></line><line x1="64" x2="14" y1="93" y2="112"></line><line x1="64" x2="-40" y1="93" y2="106"></line><line x1="64" x2="-85" y1="93" y2="75"></line><line x1="64" x2="-110" y1="93" y2="27"></line><line x1="64" x2="-110" y1="93" y2="-27"></line><line x1="64" x2="-85" y1="93" y2="-75"></line><line x1="64" x2="-40" y1="93" y2="-106"></line><line x1="64" x2="14" y1="93" y2="-112"></line><line x1="64" x2="64" y1="93" y2="-93"></line><line x1="64" x2="100" y1="93" y2="-53"></line><line x1="64" x2="107" y1="93" y2="0"></line><line x1="64" x2="67" y1="93" y2="84"></line><line x1="64" x2="-24" y1="93" y2="104"></line><line x1="64" x2="-96" y1="93" y2="46"></line><line x1="64" x2="-96" y1="93" y2="-46"></line><line x1="64" x2="-24" y1="93" y2="-104"></line><line x1="64" x2="67" y1="93" y2="-84"></line><line x1="64" x2="103" y1="93" y2="0"></line><line x1="64" x2="-51" y1="93" y2="89"></line><line x1="64" x2="-52" y1="93" y2="-89"></line><line x1="64" x2="109" y1="93" y2="0"></line><line x1="64" x2="83" y1="93" y2="70"></line><line x1="64" x2="19" y1="93" y2="107"></line><line x1="64" x2="-54" y1="93" y2="94"></line><line x1="64" x2="-102" y1="93" y2="37"></line><line x1="64" x2="-102" y1="93" y2="-37"></line><line x1="64" x2="-55" y1="93" y2="-94"></line><line x1="64" x2="19" y1="93" y2="-107"></line><line x1="64" x2="83" y1="93" y2="-70"></line><line x1="14" x2="-40" y1="112" y2="106"></line><line x1="14" x2="-85" y1="112" y2="75"></line><line x1="14" x2="-110" y1="112" y2="27"></line><line x1="14" x2="-110" y1="112" y2="-27"></line><line x1="14" x2="-85" y1="112" y2="-75"></line><line x1="14" x2="-40" y1="112" y2="-106"></line><line x1="14" x2="14" y1="112" y2="-112"></line><line x1="14" x2="64" y1="112" y2="-93"></line><line x1="14" x2="100" y1="112" y2="-53"></line><line x1="14" x2="107" y1="112" y2="0"></line><line x1="14" x2="67" y1="112" y2="84"></line><line x1="14" x2="-24" y1="112" y2="104"></line><line x1="14" x2="-96" y1="112" y2="46"></line><line x1="14" x2="-96" y1="112" y2="-46"></line><line x1="14" x2="-24" y1="112" y2="-104"></line><line x1="14" x2="67" y1="112" y2="-84"></line><line x1="14" x2="103" y1="112" y2="0"></line><line x1="14" x2="-51" y1="112" y2="89"></line><line x1="14" x2="-52" y1="112" y2="-89"></line><line x1="14" x2="109" y1="112" y2="0"></line><line x1="14" x2="83" y1="112" y2="70"></line><line x1="14" x2="19" y1="112" y2="107"></line><line x1="14" x2="-54" y1="112" y2="94"></line><line x1="14" x2="-102" y1="112" y2="37"></line><line x1="14" x2="-102" y1="112" y2="-37"></line><line x1="14" x2="-55" y1="112" y2="-94"></line><line x1="14" x2="19" y1="112" y2="-107"></line><line x1="14" x2="83" y1="112" y2="-70"></line><line x1="-40" x2="-85" y1="106" y2="75"></line><line x1="-40" x2="-110" y1="106" y2="27"></line><line x1="-40" x2="-110" y1="106" y2="-27"></line><line x1="-40" x2="-85" y1="106" y2="-75"></line><line x1="-40" x2="-40" y1="106" y2="-106"></line><line x1="-40" x2="14" y1="106" y2="-112"></line><line x1="-40" x2="64" y1="106" y2="-93"></line><line x1="-40" x2="100" y1="106" y2="-53"></line><line x1="-40" x2="107" y1="106" y2="0"></line><line x1="-40" x2="67" y1="106" y2="84"></line><line x1="-40" x2="-24" y1="106" y2="104"></line><line x1="-40" x2="-96" y1="106" y2="46"></line><line x1="-40" x2="-96" y1="106" y2="-46"></line><line x1="-40" x2="-24" y1="106" y2="-104"></line><line x1="-40" x2="67" y1="106" y2="-84"></line><line x1="-40" x2="103" y1="106" y2="0"></line><line x1="-40" x2="-51" y1="106" y2="89"></line><line x1="-40" x2="-52" y1="106" y2="-89"></line><line x1="-40" x2="109" y1="106" y2="0"></line><line x1="-40" x2="83" y1="106" y2="70"></line><line x1="-40" x2="19" y1="106" y2="107"></line><line x1="-40" x2="-54" y1="106" y2="94"></line><line x1="-40" x2="-102" y1="106" y2="37"></line><line x1="-40" x2="-102" y1="106" y2="-37"></line><line x1="-40" x2="-55" y1="106" y2="-94"></line><line x1="-40" x2="19" y1="106" y2="-107"></line><line x1="-40" x2="83" y1="106" y2="-70"></line><line x1="-85" x2="-110" y1="75" y2="27"></line><line x1="-85" x2="-110" y1="75" y2="-27"></line><line x1="-85" x2="-85" y1="75" y2="-75"></line><line x1="-85" x2="-40" y1="75" y2="-106"></line><line x1="-85" x2="14" y1="75" y2="-112"></line><line x1="-85" x2="64" y1="75" y2="-93"></line><line x1="-85" x2="100" y1="75" y2="-53"></line><line x1="-85" x2="107" y1="75" y2="0"></line><line x1="-85" x2="67" y1="75" y2="84"></line><line x1="-85" x2="-24" y1="75" y2="104"></line><line x1="-85" x2="-96" y1="75" y2="46"></line><line x1="-85" x2="-96" y1="75" y2="-46"></line><line x1="-85" x2="-24" y1="75" y2="-104"></line><line x1="-85" x2="67" y1="75" y2="-84"></line><line x1="-85" x2="103" y1="75" y2="0"></line><line x1="-85" x2="-51" y1="75" y2="89"></line><line x1="-85" x2="-52" y1="75" y2="-89"></line><line x1="-85" x2="109" y1="75" y2="0"></line><line x1="-85" x2="83" y1="75" y2="70"></line><line x1="-85" x2="19" y1="75" y2="107"></line><line x1="-85" x2="-54" y1="75" y2="94"></line><line x1="-85" x2="-102" y1="75" y2="37"></line><line x1="-85" x2="-102" y1="75" y2="-37"></line><line x1="-85" x2="-55" y1="75" y2="-94"></line><line x1="-85" x2="19" y1="75" y2="-107"></line><line x1="-85" x2="83" y1="75" y2="-70"></line><line x1="-110" x2="-110" y1="27" y2="-27"></line><line x1="-110" x2="-85" y1="27" y2="-75"></line><line x1="-110" x2="-40" y1="27" y2="-106"></line><line x1="-110" x2="14" y1="27" y2="-112"></line><line x1="-110" x2="64" y1="27" y2="-93"></line><line x1="-110" x2="100" y1="27" y2="-53"></line><line x1="-110" x2="107" y1="27" y2="0"></line><line x1="-110" x2="67" y1="27" y2="84"></line><line x1="-110" x2="-24" y1="27" y2="104"></line><line x1="-110" x2="-96" y1="27" y2="46"></line><line x1="-110" x2="-96" y1="27" y2="-46"></line><line x1="-110" x2="-24" y1="27" y2="-104"></line><line x1="-110" x2="67" y1="27" y2="-84"></line><line x1="-110" x2="103" y1="27" y2="0"></line><line x1="-110" x2="-51" y1="27" y2="89"></line><line x1="-110" x2="-52" y1="27" y2="-89"></line><line x1="-110" x2="109" y1="27" y2="0"></line><line x1="-110" x2="83" y1="27" y2="70"></line><line x1="-110" x2="19" y1="27" y2="107"></line><line x1="-110" x2="-54" y1="27" y2="94"></line><line x1="-110" x2="-102" y1="27" y2="37"></line><line x1="-110" x2="-102" y1="27" y2="-37"></line><line x1="-110" x2="-55" y1="27" y2="-94"></line><line x1="-110" x2="19" y1="27" y2="-107"></line><line x1="-110" x2="83" y1="27" y2="-70"></line><line x1="-110" x2="-85" y1="-27" y2="-75"></line><line x1="-110" x2="-40" y1="-27" y2="-106"></line><line x1="-110" x2="14" y1="-27" y2="-112"></line><line x1="-110" x2="64" y1="-27" y2="-93"></line><line x1="-110" x2="100" y1="-27" y2="-53"></line><line x1="-110" x2="107" y1="-27" y2="0"></line><line x1="-110" x2="67" y1="-27" y2="84"></line><line x1="-110" x2="-24" y1="-27" y2="104"></line><line x1="-110" x2="-96" y1="-27" y2="46"></line><line x1="-110" x2="-96" y1="-27" y2="-46"></line><line x1="-110" x2="-24" y1="-27" y2="-104"></line><line x1="-110" x2="67" y1="-27" y2="-84"></line><line x1="-110" x2="103" y1="-27" y2="0"></line><line x1="-110" x2="-51" y1="-27" y2="89"></line><line x1="-110" x2="-52" y1="-27" y2="-89"></line><line x1="-110" x2="109" y1="-27" y2="0"></line><line x1="-110" x2="83" y1="-27" y2="70"></line><line x1="-110" x2="19" y1="-27" y2="107"></line><line x1="-110" x2="-54" y1="-27" y2="94"></line><line x1="-110" x2="-102" y1="-27" y2="37"></line><line x1="-110" x2="-102" y1="-27" y2="-37"></line><line x1="-110" x2="-55" y1="-27" y2="-94"></line><line x1="-110" x2="19" y1="-27" y2="-107"></line><line x1="-110" x2="83" y1="-27" y2="-70"></line><line x1="-85" x2="-40" y1="-75" y2="-106"></line><line x1="-85" x2="14" y1="-75" y2="-112"></line><line x1="-85" x2="64" y1="-75" y2="-93"></line><line x1="-85" x2="100" y1="-75" y2="-53"></line><line x1="-85" x2="107" y1="-75" y2="0"></line><line x1="-85" x2="67" y1="-75" y2="84"></line><line x1="-85" x2="-24" y1="-75" y2="104"></line><line x1="-85" x2="-96" y1="-75" y2="46"></line><line x1="-85" x2="-96" y1="-75" y2="-46"></line><line x1="-85" x2="-24" y1="-75" y2="-104"></line><line x1="-85" x2="67" y1="-75" y2="-84"></line><line x1="-85" x2="103" y1="-75" y2="0"></line><line x1="-85" x2="-51" y1="-75" y2="89"></line><line x1="-85" x2="-52" y1="-75" y2="-89"></line><line x1="-85" x2="109" y1="-75" y2="0"></line><line x1="-85" x2="83" y1="-75" y2="70"></line><line x1="-85" x2="19" y1="-75" y2="107"></line><line x1="-85" x2="-54" y1="-75" y2="94"></line><line x1="-85" x2="-102" y1="-75" y2="37"></line><line x1="-85" x2="-102" y1="-75" y2="-37"></line><line x1="-85" x2="-55" y1="-75" y2="-94"></line><line x1="-85" x2="19" y1="-75" y2="-107"></line><line x1="-85" x2="83" y1="-75" y2="-70"></line><line x1="-40" x2="14" y1="-106" y2="-112"></line><line x1="-40" x2="64" y1="-106" y2="-93"></line><line x1="-40" x2="100" y1="-106" y2="-53"></line><line x1="-40" x2="107" y1="-106" y2="0"></line><line x1="-40" x2="67" y1="-106" y2="84"></line><line x1="-40" x2="-24" y1="-106" y2="104"></line><line x1="-40" x2="-96" y1="-106" y2="46"></line><line x1="-40" x2="-96" y1="-106" y2="-46"></line><line x1="-40" x2="-24" y1="-106" y2="-104"></line><line x1="-40" x2="67" y1="-106" y2="-84"></line><line x1="-40" x2="103" y1="-106" y2="0"></line><line x1="-40" x2="-51" y1="-106" y2="89"></line><line x1="-40" x2="-52" y1="-106" y2="-89"></line><line x1="-40" x2="109" y1="-106" y2="0"></line><line x1="-40" x2="83" y1="-106" y2="70"></line><line x1="-40" x2="19" y1="-106" y2="107"></line><line x1="-40" x2="-54" y1="-106" y2="94"></line><line x1="-40" x2="-102" y1="-106" y2="37"></line><line x1="-40" x2="-102" y1="-106" y2="-37"></line><line x1="-40" x2="-55" y1="-106" y2="-94"></line><line x1="-40" x2="19" y1="-106" y2="-107"></line><line x1="-40" x2="83" y1="-106" y2="-70"></line><line x1="14" x2="64" y1="-112" y2="-93"></line><line x1="14" x2="100" y1="-112" y2="-53"></line><line x1="14" x2="107" y1="-112" y2="0"></line><line x1="14" x2="67" y1="-112" y2="84"></line><line x1="14" x2="-24" y1="-112" y2="104"></line><line x1="14" x2="-96" y1="-112" y2="46"></line><line x1="14" x2="-96" y1="-112" y2="-46"></line><line x1="14" x2="-24" y1="-112" y2="-104"></line><line x1="14" x2="67" y1="-112" y2="-84"></line><line x1="14" x2="103" y1="-112" y2="0"></line><line x1="14" x2="-51" y1="-112" y2="89"></line><line x1="14" x2="-52" y1="-112" y2="-89"></line><line x1="14" x2="109" y1="-112" y2="0"></line><line x1="14" x2="83" y1="-112" y2="70"></line><line x1="14" x2="19" y1="-112" y2="107"></line><line x1="14" x2="-54" y1="-112" y2="94"></line><line x1="14" x2="-102" y1="-112" y2="37"></line><line x1="14" x2="-102" y1="-112" y2="-37"></line><line x1="14" x2="-55" y1="-112" y2="-94"></line><line x1="14" x2="19" y1="-112" y2="-107"></line><line x1="14" x2="83" y1="-112" y2="-70"></line><line x1="64" x2="100" y1="-93" y2="-53"></line><line x1="64" x2="107" y1="-93" y2="0"></line><line x1="64" x2="67" y1="-93" y2="84"></line><line x1="64" x2="-24" y1="-93" y2="104"></line><line x1="64" x2="-96" y1="-93" y2="46"></line><line x1="64" x2="-96" y1="-93" y2="-46"></line><line x1="64" x2="-24" y1="-93" y2="-104"></line><line x1="64" x2="67" y1="-93" y2="-84"></line><line x1="64" x2="103" y1="-93" y2="0"></line><line x1="64" x2="-51" y1="-93" y2="89"></line><line x1="64" x2="-52" y1="-93" y2="-89"></line><line x1="64" x2="109" y1="-93" y2="0"></line><line x1="64" x2="83" y1="-93" y2="70"></line><line x1="64" x2="19" y1="-93" y2="107"></line><line x1="64" x2="-54" y1="-93" y2="94"></line><line x1="64" x2="-102" y1="-93" y2="37"></line><line x1="64" x2="-102" y1="-93" y2="-37"></line><line x1="64" x2="-55" y1="-93" y2="-94"></line><line x1="64" x2="19" y1="-93" y2="-107"></line><line x1="64" x2="83" y1="-93" y2="-70"></line><line x1="100" x2="107" y1="-53" y2="0"></line><line x1="100" x2="67" y1="-53" y2="84"></line><line x1="100" x2="-24" y1="-53" y2="104"></line><line x1="100" x2="-96" y1="-53" y2="46"></line><line x1="100" x2="-96" y1="-53" y2="-46"></line><line x1="100" x2="-24" y1="-53" y2="-104"></line><line x1="100" x2="67" y1="-53" y2="-84"></line><line x1="100" x2="103" y1="-53" y2="0"></line><line x1="100" x2="-51" y1="-53" y2="89"></line><line x1="100" x2="-52" y1="-53" y2="-89"></line><line x1="100" x2="109" y1="-53" y2="0"></line><line x1="100" x2="83" y1="-53" y2="70"></line><line x1="100" x2="19" y1="-53" y2="107"></line><line x1="100" x2="-54" y1="-53" y2="94"></line><line x1="100" x2="-102" y1="-53" y2="37"></line><line x1="100" x2="-102" y1="-53" y2="-37"></line><line x1="100" x2="-55" y1="-53" y2="-94"></line><line x1="100" x2="19" y1="-53" y2="-107"></line><line x1="100" x2="83" y1="-53" y2="-70"></line><line x1="107" x2="67" y1="0" y2="84"></line><line x1="107" x2="-24" y1="0" y2="104"></line><line x1="107" x2="-96" y1="0" y2="46"></line><line x1="107" x2="-96" y1="0" y2="-46"></line><line x1="107" x2="-24" y1="0" y2="-104"></line><line x1="107" x2="67" y1="0" y2="-84"></line><line x1="107" x2="103" y1="0" y2="0"></line><line x1="107" x2="-51" y1="0" y2="89"></line><line x1="107" x2="-52" y1="0" y2="-89"></line><line x1="107" x2="109" y1="0" y2="0"></line><line x1="107" x2="83" y1="0" y2="70"></line><line x1="107" x2="19" y1="0" y2="107"></line><line x1="107" x2="-54" y1="0" y2="94"></line><line x1="107" x2="-102" y1="0" y2="37"></line><line x1="107" x2="-102" y1="0" y2="-37"></line><line x1="107" x2="-55" y1="0" y2="-94"></line><line x1="107" x2="19" y1="0" y2="-107"></line><line x1="107" x2="83" y1="0" y2="-70"></line><line x1="67" x2="-24" y1="84" y2="104"></line><line x1="67" x2="-96" y1="84" y2="46"></line><line x1="67" x2="-96" y1="84" y2="-46"></line><line x1="67" x2="-24" y1="84" y2="-104"></line><line x1="67" x2="67" y1="84" y2="-84"></line><line x1="67" x2="103" y1="84" y2="0"></line><line x1="67" x2="-51" y1="84" y2="89"></line><line x1="67" x2="-52" y1="84" y2="-89"></line><line x1="67" x2="109" y1="84" y2="0"></line><line x1="67" x2="83" y1="84" y2="70"></line><line x1="67" x2="19" y1="84" y2="107"></line><line x1="67" x2="-54" y1="84" y2="94"></line><line x1="67" x2="-102" y1="84" y2="37"></line><line x1="67" x2="-102" y1="84" y2="-37"></line><line x1="67" x2="-55" y1="84" y2="-94"></line><line x1="67" x2="19" y1="84" y2="-107"></line><line x1="67" x2="83" y1="84" y2="-70"></line><line x1="-24" x2="-96" y1="104" y2="46"></line><line x1="-24" x2="-96" y1="104" y2="-46"></line><line x1="-24" x2="-24" y1="104" y2="-104"></line><line x1="-24" x2="67" y1="104" y2="-84"></line><line x1="-24" x2="103" y1="104" y2="0"></line><line x1="-24" x2="-51" y1="104" y2="89"></line><line x1="-24" x2="-52" y1="104" y2="-89"></line><line x1="-24" x2="109" y1="104" y2="0"></line><line x1="-24" x2="83" y1="104" y2="70"></line><line x1="-24" x2="19" y1="104" y2="107"></line><line x1="-24" x2="-54" y1="104" y2="94"></line><line x1="-24" x2="-102" y1="104" y2="37"></line><line x1="-24" x2="-102" y1="104" y2="-37"></line><line x1="-24" x2="-55" y1="104" y2="-94"></line><line x1="-24" x2="19" y1="104" y2="-107"></line><line x1="-24" x2="83" y1="104" y2="-70"></line><line x1="-96" x2="-96" y1="46" y2="-46"></line><line x1="-96" x2="-24" y1="46" y2="-104"></line><line x1="-96" x2="67" y1="46" y2="-84"></line><line x1="-96" x2="103" y1="46" y2="0"></line><line x1="-96" x2="-51" y1="46" y2="89"></line><line x1="-96" x2="-52" y1="46" y2="-89"></line><line x1="-96" x2="109" y1="46" y2="0"></line><line x1="-96" x2="83" y1="46" y2="70"></line><line x1="-96" x2="19" y1="46" y2="107"></line><line x1="-96" x2="-54" y1="46" y2="94"></line><line x1="-96" x2="-102" y1="46" y2="37"></line><line x1="-96" x2="-102" y1="46" y2="-37"></line><line x1="-96" x2="-55" y1="46" y2="-94"></line><line x1="-96" x2="19" y1="46" y2="-107"></line><line x1="-96" x2="83" y1="46" y2="-70"></line><line x1="-96" x2="-24" y1="-46" y2="-104"></line><line x1="-96" x2="67" y1="-46" y2="-84"></line><line x1="-96" x2="103" y1="-46" y2="0"></line><line x1="-96" x2="-51" y1="-46" y2="89"></line><line x1="-96" x2="-52" y1="-46" y2="-89"></line><line x1="-96" x2="109" y1="-46" y2="0"></line><line x1="-96" x2="83" y1="-46" y2="70"></line><line x1="-96" x2="19" y1="-46" y2="107"></line><line x1="-96" x2="-54" y1="-46" y2="94"></line><line x1="-96" x2="-102" y1="-46" y2="37"></line><line x1="-96" x2="-102" y1="-46" y2="-37"></line><line x1="-96" x2="-55" y1="-46" y2="-94"></line><line x1="-96" x2="19" y1="-46" y2="-107"></line><line x1="-96" x2="83" y1="-46" y2="-70"></line><line x1="-24" x2="67" y1="-104" y2="-84"></line><line x1="-24" x2="103" y1="-104" y2="0"></line><line x1="-24" x2="-51" y1="-104" y2="89"></line><line x1="-24" x2="-52" y1="-104" y2="-89"></line><line x1="-24" x2="109" y1="-104" y2="0"></line><line x1="-24" x2="83" y1="-104" y2="70"></line><line x1="-24" x2="19" y1="-104" y2="107"></line><line x1="-24" x2="-54" y1="-104" y2="94"></line><line x1="-24" x2="-102" y1="-104" y2="37"></line><line x1="-24" x2="-102" y1="-104" y2="-37"></line><line x1="-24" x2="-55" y1="-104" y2="-94"></line><line x1="-24" x2="19" y1="-104" y2="-107"></line><line x1="-24" x2="83" y1="-104" y2="-70"></line><line x1="67" x2="103" y1="-84" y2="0"></line><line x1="67" x2="-51" y1="-84" y2="89"></line><line x1="67" x2="-52" y1="-84" y2="-89"></line><line x1="67" x2="109" y1="-84" y2="0"></line><line x1="67" x2="83" y1="-84" y2="70"></line><line x1="67" x2="19" y1="-84" y2="107"></line><line x1="67" x2="-54" y1="-84" y2="94"></line><line x1="67" x2="-102" y1="-84" y2="37"></line><line x1="67" x2="-102" y1="-84" y2="-37"></line><line x1="67" x2="-55" y1="-84" y2="-94"></line><line x1="67" x2="19" y1="-84" y2="-107"></line><line x1="67" x2="83" y1="-84" y2="-70"></line><line x1="103" x2="-51" y1="0" y2="89"></line><line x1="103" x2="-52" y1="0" y2="-89"></line><line x1="103" x2="109" y1="0" y2="0"></line><line x1="103" x2="83" y1="0" y2="70"></line><line x1="103" x2="19" y1="0" y2="107"></line><line x1="103" x2="-54" y1="0" y2="94"></line><line x1="103" x2="-102" y1="0" y2="37"></line><line x1="103" x2="-102" y1="0" y2="-37"></line><line x1="103" x2="-55" y1="0" y2="-94"></line><line x1="103" x2="19" y1="0" y2="-107"></line><line x1="103" x2="83" y1="0" y2="-70"></line><line x1="-51" x2="-52" y1="89" y2="-89"></line><line x1="-51" x2="109" y1="89" y2="0"></line><line x1="-51" x2="83" y1="89" y2="70"></line><line x1="-51" x2="19" y1="89" y2="107"></line><line x1="-51" x2="-54" y1="89" y2="94"></line><line x1="-51" x2="-102" y1="89" y2="37"></line><line x1="-51" x2="-102" y1="89" y2="-37"></line><line x1="-51" x2="-55" y1="89" y2="-94"></line><line x1="-51" x2="19" y1="89" y2="-107"></line><line x1="-51" x2="83" y1="89" y2="-70"></line><line x1="-52" x2="109" y1="-89" y2="0"></line><line x1="-52" x2="83" y1="-89" y2="70"></line><line x1="-52" x2="19" y1="-89" y2="107"></line><line x1="-52" x2="-54" y1="-89" y2="94"></line><line x1="-52" x2="-102" y1="-89" y2="37"></line><line x1="-52" x2="-102" y1="-89" y2="-37"></line><line x1="-52" x2="-55" y1="-89" y2="-94"></line><line x1="-52" x2="19" y1="-89" y2="-107"></line><line x1="-52" x2="83" y1="-89" y2="-70"></line><line x1="109" x2="83" y1="0" y2="70"></line><line x1="109" x2="19" y1="0" y2="107"></line><line x1="109" x2="-54" y1="0" y2="94"></line><line x1="109" x2="-102" y1="0" y2="37"></line><line x1="109" x2="-102" y1="0" y2="-37"></line><line x1="109" x2="-55" y1="0" y2="-94"></line><line x1="109" x2="19" y1="0" y2="-107"></line><line x1="109" x2="83" y1="0" y2="-70"></line><line x1="83" x2="19" y1="70" y2="107"></line><line x1="83" x2="-54" y1="70" y2="94"></line><line x1="83" x2="-102" y1="70" y2="37"></line><line x1="83" x2="-102" y1="70" y2="-37"></line><line x1="83" x2="-55" y1="70" y2="-94"></line><line x1="83" x2="19" y1="70" y2="-107"></line><line x1="83" x2="83" y1="70" y2="-70"></line><line x1="19" x2="-54" y1="107" y2="94"></line><line x1="19" x2="-102" y1="107" y2="37"></line><line x1="19" x2="-102" y1="107" y2="-37"></line><line x1="19" x2="-55" y1="107" y2="-94"></line><line x1="19" x2="19" y1="107" y2="-107"></line><line x1="19" x2="83" y1="107" y2="-70"></line><line x1="-54" x2="-102" y1="94" y2="37"></line><line x1="-54" x2="-102" y1="94" y2="-37"></line><line x1="-54" x2="-55" y1="94" y2="-94"></line><line x1="-54" x2="19" y1="94" y2="-107"></line><line x1="-54" x2="83" y1="94" y2="-70"></line><line x1="-102" x2="-102" y1="37" y2="-37"></line><line x1="-102" x2="-55" y1="37" y2="-94"></line><line x1="-102" x2="19" y1="37" y2="-107"></line><line x1="-102" x2="83" y1="37" y2="-70"></line><line x1="-102" x2="-55" y1="-37" y2="-94"></line><line x1="-102" x2="19" y1="-37" y2="-107"></line><line x1="-102" x2="83" y1="-37" y2="-70"></line><line x1="-55" x2="19" y1="-94" y2="-107"></line><line x1="-55" x2="83" y1="-94" y2="-70"></line><line x1="19" x2="83" y1="-107" y2="-70"></line></g></svg>