<svg viewBox="-400 -400 800 800" xmlns="http://www.w3.org/2000/svg"><style>line {
  stroke: black;
}</style><g transform="rotate(90 0 0)"><animateTransform attributeName="transform" dur="60s" from="0 0 0" repeatCount="indefinite" to="360 0 0" type="rotate"></animateTransform><g><line x1="110" x2="89" y1="0" y2="65"></line><line x1="110" x2="34" y1="0" y2="105"></line><line x1="110" x2="-34" y1="0" y2="105"></line><line x1="110" x2="-89" y1="0" y2="65"></line><line x1="110" x2="-110" y1="0" y2="0"></line><line x1="110" x2="-89" y1="0" y2="-65"></line><line x1="110" x2="-34" y1="0" y2="-105"></line><line x1="110" x2="34" y1="0" y2="-105"></line><line x1="110" x2="89" y1="0" y2="-65"></line><line x1="89" x2="34" y1="65" y2="105"></line><line x1="89" x2="-34" y1="65" y2="105"></line><line x1="89" x2="-89" y1="65" y2="65"></line><line x1="89" x2="-110" y1="65" y2="0"></line><line x1="89" x2="-89" y1="65" y2="-65"></line><line x1="89" x2="-34" y1="65" y2="-105"></line><line x1="89" x2="34" y1="65" y2="-105"></line><line x1="89" x2="89" y1="65" y2="-65"></line><line x1="34" x2="-34" y1="105" y2="105"></line><line x1="34" x2="-89" y1="105" y2="65"></line><line x1="34" x2="-110" y1="105" y2="0"></line><line x1="34" x2="-89" y1="105" y2="-65"></line><line x1="34" x2="-34" y1="105" y2="-105"></line><line x1="34" x2="34" y1="105" y2="-105"></line><line x1="34" x2="89" y1="105" y2="-65"></line><line x1="-34" x2="-89" y1="105" y2="65"></line><line x1="-34" x2="-110" y1="105" y2="0"></line><line x1="-34" x2="-89" y1="105" y2="-65"></line><line x1="-34" x2="-34" y1="105" y2="-105"></line><line x1="-34" x2="34" y1="105" y2="-105"></line><line x1="-34" x2="89" y1="105" y2="-65"></line><line x1="-89" x2="-110" y1="65" y2="0"></line><line x1="-89" x2="-89" y1="65" y2="-65"></line><line x1="-89" x2="-34" y1="65" y2="-105"></line><line x1="-89" x2="34" y1="65" y2="-105"></line><line x1="-89" x2="89" y1="65" y2="-65"></line><line x1="-110" x2="-89" y1="0" y2="-65"></line><line x1="-110" x2="-34" y1="0" y2="-105"></line><line x1="-110" x2="34" y1="0" y2="-105"></line><line x1="-110" x2="89" y1="0" y2="-65"></line><line x1="-89" x2="-34" y1="-65" y2="-105"></line><line x1="-89" x2="34" y1="-65" y2="-105"></line><line x1="-89" x2="89" y1="-65" y2="-65"></line><line x1="-34" x2="34" y1="-105" y2="-105"></line><line x1="-34" x2="89" y1="-105" y2="-65"></line><line x1="34" x2="89" y1="-105" y2="-65"></line></g><g id="a"><circle cx="110.0" cy="0.0" fill="white" r="10" stroke="black"></circle><circle cx="88.99186938124421" cy="64.65637775217205" fill="white" r="10" stroke="black"></circle><circle cx="33.99186938124422" cy="104.61621679246689" fill="white" r="10" stroke="black"></circle><circle cx="-33.99186938124421" cy="104.6162167924669" fill="white" r="10" stroke="black"></circle><circle cx="-88.99186938124421" cy="64.65637775217206" fill="white" r="10" stroke="black"></circle><circle cx="-110.0" cy="1.3471114790620885E-14" fill="white" r="10" stroke="black"></circle><circle cx="-88.99186938124421" cy="-64.65637775217203" fill="white" r="10" stroke="black"></circle><circle cx="-33.99186938124423" cy="-104.61621679246689" fill="white" r="10" stroke="black"></circle><circle cx="33.99186938124419" cy="-104.6162167924669" fill="white" r="10" stroke="black"></circle><circle cx="88.99186938124421" cy="-64.65637775217206" fill="white" r="10" stroke="black"></circle></g></g></svg>