<svg viewBox="-400 -400 800 800" xmlns="http://www.w3.org/2000/svg"><style>circle {
  stroke: black;
}

line {
  stroke: black;
}</style><g transform="rotate(90 0 0)"><animateTransform attributeName="transform" dur="60s" from="0 0 0" repeatCount="indefinite" to="360 0 0" type="rotate"><g><g id="a"><circle cx="309.0" cy="0.0" fill="white" r="10" stroke="black"></circle><circle cx="236.7077329237642" cy="198.62137139314063" fill="white" r="10" stroke="black"></circle><circle cx="53.6572868990815" cy="304.3055956807723" fill="white" r="10" stroke="black"></circle><circle cx="-154.49999999999994" cy="267.60184976939155" fill="white" r="10" stroke="black"></circle><circle cx="-290.3650198228457" cy="105.68422428763168" fill="white" r="10" stroke="black"></circle><circle cx="-290.3650198228457" cy="-105.68422428763162" fill="white" r="10" stroke="black"></circle><circle cx="-154.50000000000014" cy="-267.6018497693915" fill="white" r="10" stroke="black"></circle><circle cx="53.65728689908136" cy="-304.3055956807723" fill="white" r="10" stroke="black"></circle><circle cx="236.70773292376413" cy="-198.62137139314072" fill="white" r="10" stroke="black"></circle></g></g><g><g id="a"><circle cx="313.0" cy="0.0" fill="white" r="10" stroke="black"></circle><circle cx="277.1477360294547" cy="145.45835284969954" fill="white" r="10" stroke="black"></circle><circle cx="177.8042657268518" cy="257.59395002471445" fill="white" r="10" stroke="black"></circle><circle cx="37.7279809199161" cy="310.7178775926909" fill="white" r="10" stroke="black"></circle><circle cx="-110.99132964431381" cy="292.6600839605348" fill="white" r="10" stroke="black"></circle><circle cx="-234.28386417755485" cy="207.55739202936866" fill="white" r="10" stroke="black"></circle><circle cx="-303.9047888543543" cy="74.90580292200542" fill="white" r="10" stroke="black"></circle><circle cx="-303.90478885435436" cy="-74.90580292200535" fill="white" r="10" stroke="black"></circle><circle cx="-234.28386417755482" cy="-207.5573920293687" fill="white" r="10" stroke="black"></circle><circle cx="-110.99132964431374" cy="-292.6600839605348" fill="white" r="10" stroke="black"></circle><circle cx="37.727980919915886" cy="-310.7178775926909" fill="white" r="10" stroke="black"></circle><circle cx="177.8042657268517" cy="-257.5939500247145" fill="white" r="10" stroke="black"></circle><circle cx="277.14773602945473" cy="-145.4583528496995" fill="white" r="10" stroke="black"></circle></g></g><g><line x1="309" x2="237" y1="0" y2="199"></line><line x1="309" x2="54" y1="0" y2="304"></line><line x1="309" x2="-154" y1="0" y2="268"></line><line x1="309" x2="-290" y1="0" y2="106"></line><line x1="309" x2="-290" y1="0" y2="-106"></line><line x1="309" x2="-155" y1="0" y2="-268"></line><line x1="309" x2="54" y1="0" y2="-304"></line><line x1="309" x2="237" y1="0" y2="-199"></line><line x1="309" x2="313" y1="0" y2="0"></line><line x1="309" x2="277" y1="0" y2="145"></line><line x1="309" x2="178" y1="0" y2="258"></line><line x1="309" x2="38" y1="0" y2="311"></line><line x1="309" x2="-111" y1="0" y2="293"></line><line x1="309" x2="-234" y1="0" y2="208"></line><line x1="309" x2="-304" y1="0" y2="75"></line><line x1="309" x2="-304" y1="0" y2="-75"></line><line x1="309" x2="-234" y1="0" y2="-208"></line><line x1="309" x2="-111" y1="0" y2="-293"></line><line x1="309" x2="38" y1="0" y2="-311"></line><line x1="309" x2="178" y1="0" y2="-258"></line><line x1="309" x2="277" y1="0" y2="-145"></line><line x1="237" x2="54" y1="199" y2="304"></line><line x1="237" x2="-154" y1="199" y2="268"></line><line x1="237" x2="-290" y1="199" y2="106"></line><line x1="237" x2="-290" y1="199" y2="-106"></line><line x1="237" x2="-155" y1="199" y2="-268"></line><line x1="237" x2="54" y1="199" y2="-304"></line><line x1="237" x2="237" y1="199" y2="-199"></line><line x1="237" x2="313" y1="199" y2="0"></line><line x1="237" x2="277" y1="199" y2="145"></line><line x1="237" x2="178" y1="199" y2="258"></line><line x1="237" x2="38" y1="199" y2="311"></line><line x1="237" x2="-111" y1="199" y2="293"></line><line x1="237" x2="-234" y1="199" y2="208"></line><line x1="237" x2="-304" y1="199" y2="75"></line><line x1="237" x2="-304" y1="199" y2="-75"></line><line x1="237" x2="-234" y1="199" y2="-208"></line><line x1="237" x2="-111" y1="199" y2="-293"></line><line x1="237" x2="38" y1="199" y2="-311"></line><line x1="237" x2="178" y1="199" y2="-258"></line><line x1="237" x2="277" y1="199" y2="-145"></line><line x1="54" x2="-154" y1="304" y2="268"></line><line x1="54" x2="-290" y1="304" y2="106"></line><line x1="54" x2="-290" y1="304" y2="-106"></line><line x1="54" x2="-155" y1="304" y2="-268"></line><line x1="54" x2="54" y1="304" y2="-304"></line><line x1="54" x2="237" y1="304" y2="-199"></line><line x1="54" x2="313" y1="304" y2="0"></line><line x1="54" x2="277" y1="304" y2="145"></line><line x1="54" x2="178" y1="304" y2="258"></line><line x1="54" x2="38" y1="304" y2="311"></line><line x1="54" x2="-111" y1="304" y2="293"></line><line x1="54" x2="-234" y1="304" y2="208"></line><line x1="54" x2="-304" y1="304" y2="75"></line><line x1="54" x2="-304" y1="304" y2="-75"></line><line x1="54" x2="-234" y1="304" y2="-208"></line><line x1="54" x2="-111" y1="304" y2="-293"></line><line x1="54" x2="38" y1="304" y2="-311"></line><line x1="54" x2="178" y1="304" y2="-258"></line><line x1="54" x2="277" y1="304" y2="-145"></line><line x1="-154" x2="-290" y1="268" y2="106"></line><line x1="-154" x2="-290" y1="268" y2="-106"></line><line x1="-154" x2="-155" y1="268" y2="-268"></line><line x1="-154" x2="54" y1="268" y2="-304"></line><line x1="-154" x2="237" y1="268" y2="-199"></line><line x1="-154" x2="313" y1="268" y2="0"></line><line x1="-154" x2="277" y1="268" y2="145"></line><line x1="-154" x2="178" y1="268" y2="258"></line><line x1="-154" x2="38" y1="268" y2="311"></line><line x1="-154" x2="-111" y1="268" y2="293"></line><line x1="-154" x2="-234" y1="268" y2="208"></line><line x1="-154" x2="-304" y1="268" y2="75"></line><line x1="-154" x2="-304" y1="268" y2="-75"></line><line x1="-154" x2="-234" y1="268" y2="-208"></line><line x1="-154" x2="-111" y1="268" y2="-293"></line><line x1="-154" x2="38" y1="268" y2="-311"></line><line x1="-154" x2="178" y1="268" y2="-258"></line><line x1="-154" x2="277" y1="268" y2="-145"></line><line x1="-290" x2="-290" y1="106" y2="-106"></line><line x1="-290" x2="-155" y1="106" y2="-268"></line><line x1="-290" x2="54" y1="106" y2="-304"></line><line x1="-290" x2="237" y1="106" y2="-199"></line><line x1="-290" x2="313" y1="106" y2="0"></line><line x1="-290" x2="277" y1="106" y2="145"></line><line x1="-290" x2="178" y1="106" y2="258"></line><line x1="-290" x2="38" y1="106" y2="311"></line><line x1="-290" x2="-111" y1="106" y2="293"></line><line x1="-290" x2="-234" y1="106" y2="208"></line><line x1="-290" x2="-304" y1="106" y2="75"></line><line x1="-290" x2="-304" y1="106" y2="-75"></line><line x1="-290" x2="-234" y1="106" y2="-208"></line><line x1="-290" x2="-111" y1="106" y2="-293"></line><line x1="-290" x2="38" y1="106" y2="-311"></line><line x1="-290" x2="178" y1="106" y2="-258"></line><line x1="-290" x2="277" y1="106" y2="-145"></line><line x1="-290" x2="-155" y1="-106" y2="-268"></line><line x1="-290" x2="54" y1="-106" y2="-304"></line><line x1="-290" x2="237" y1="-106" y2="-199"></line><line x1="-290" x2="313" y1="-106" y2="0"></line><line x1="-290" x2="277" y1="-106" y2="145"></line><line x1="-290" x2="178" y1="-106" y2="258"></line><line x1="-290" x2="38" y1="-106" y2="311"></line><line x1="-290" x2="-111" y1="-106" y2="293"></line><line x1="-290" x2="-234" y1="-106" y2="208"></line><line x1="-290" x2="-304" y1="-106" y2="75"></line><line x1="-290" x2="-304" y1="-106" y2="-75"></line><line x1="-290" x2="-234" y1="-106" y2="-208"></line><line x1="-290" x2="-111" y1="-106" y2="-293"></line><line x1="-290" x2="38" y1="-106" y2="-311"></line><line x1="-290" x2="178" y1="-106" y2="-258"></line><line x1="-290" x2="277" y1="-106" y2="-145"></line><line x1="-155" x2="54" y1="-268" y2="-304"></line><line x1="-155" x2="237" y1="-268" y2="-199"></line><line x1="-155" x2="313" y1="-268" y2="0"></line><line x1="-155" x2="277" y1="-268" y2="145"></line><line x1="-155" x2="178" y1="-268" y2="258"></line><line x1="-155" x2="38" y1="-268" y2="311"></line><line x1="-155" x2="-111" y1="-268" y2="293"></line><line x1="-155" x2="-234" y1="-268" y2="208"></line><line x1="-155" x2="-304" y1="-268" y2="75"></line><line x1="-155" x2="-304" y1="-268" y2="-75"></line><line x1="-155" x2="-234" y1="-268" y2="-208"></line><line x1="-155" x2="-111" y1="-268" y2="-293"></line><line x1="-155" x2="38" y1="-268" y2="-311"></line><line x1="-155" x2="178" y1="-268" y2="-258"></line><line x1="-155" x2="277" y1="-268" y2="-145"></line><line x1="54" x2="237" y1="-304" y2="-199"></line><line x1="54" x2="313" y1="-304" y2="0"></line><line x1="54" x2="277" y1="-304" y2="145"></line><line x1="54" x2="178" y1="-304" y2="258"></line><line x1="54" x2="38" y1="-304" y2="311"></line><line x1="54" x2="-111" y1="-304" y2="293"></line><line x1="54" x2="-234" y1="-304" y2="208"></line><line x1="54" x2="-304" y1="-304" y2="75"></line><line x1="54" x2="-304" y1="-304" y2="-75"></line><line x1="54" x2="-234" y1="-304" y2="-208"></line><line x1="54" x2="-111" y1="-304" y2="-293"></line><line x1="54" x2="38" y1="-304" y2="-311"></line><line x1="54" x2="178" y1="-304" y2="-258"></line><line x1="54" x2="277" y1="-304" y2="-145"></line><line x1="237" x2="313" y1="-199" y2="0"></line><line x1="237" x2="277" y1="-199" y2="145"></line><line x1="237" x2="178" y1="-199" y2="258"></line><line x1="237" x2="38" y1="-199" y2="311"></line><line x1="237" x2="-111" y1="-199" y2="293"></line><line x1="237" x2="-234" y1="-199" y2="208"></line><line x1="237" x2="-304" y1="-199" y2="75"></line><line x1="237" x2="-304" y1="-199" y2="-75"></line><line x1="237" x2="-234" y1="-199" y2="-208"></line><line x1="237" x2="-111" y1="-199" y2="-293"></line><line x1="237" x2="38" y1="-199" y2="-311"></line><line x1="237" x2="178" y1="-199" y2="-258"></line><line x1="237" x2="277" y1="-199" y2="-145"></line><line x1="313" x2="277" y1="0" y2="145"></line><line x1="313" x2="178" y1="0" y2="258"></line><line x1="313" x2="38" y1="0" y2="311"></line><line x1="313" x2="-111" y1="0" y2="293"></line><line x1="313" x2="-234" y1="0" y2="208"></line><line x1="313" x2="-304" y1="0" y2="75"></line><line x1="313" x2="-304" y1="0" y2="-75"></line><line x1="313" x2="-234" y1="0" y2="-208"></line><line x1="313" x2="-111" y1="0" y2="-293"></line><line x1="313" x2="38" y1="0" y2="-311"></line><line x1="313" x2="178" y1="0" y2="-258"></line><line x1="313" x2="277" y1="0" y2="-145"></line><line x1="277" x2="178" y1="145" y2="258"></line><line x1="277" x2="38" y1="145" y2="311"></line><line x1="277" x2="-111" y1="145" y2="293"></line><line x1="277" x2="-234" y1="145" y2="208"></line><line x1="277" x2="-304" y1="145" y2="75"></line><line x1="277" x2="-304" y1="145" y2="-75"></line><line x1="277" x2="-234" y1="145" y2="-208"></line><line x1="277" x2="-111" y1="145" y2="-293"></line><line x1="277" x2="38" y1="145" y2="-311"></line><line x1="277" x2="178" y1="145" y2="-258"></line><line x1="277" x2="277" y1="145" y2="-145"></line><line x1="178" x2="38" y1="258" y2="311"></line><line x1="178" x2="-111" y1="258" y2="293"></line><line x1="178" x2="-234" y1="258" y2="208"></line><line x1="178" x2="-304" y1="258" y2="75"></line><line x1="178" x2="-304" y1="258" y2="-75"></line><line x1="178" x2="-234" y1="258" y2="-208"></line><line x1="178" x2="-111" y1="258" y2="-293"></line><line x1="178" x2="38" y1="258" y2="-311"></line><line x1="178" x2="178" y1="258" y2="-258"></line><line x1="178" x2="277" y1="258" y2="-145"></line><line x1="38" x2="-111" y1="311" y2="293"></line><line x1="38" x2="-234" y1="311" y2="208"></line><line x1="38" x2="-304" y1="311" y2="75"></line><line x1="38" x2="-304" y1="311" y2="-75"></line><line x1="38" x2="-234" y1="311" y2="-208"></line><line x1="38" x2="-111" y1="311" y2="-293"></line><line x1="38" x2="38" y1="311" y2="-311"></line><line x1="38" x2="178" y1="311" y2="-258"></line><line x1="38" x2="277" y1="311" y2="-145"></line><line x1="-111" x2="-234" y1="293" y2="208"></line><line x1="-111" x2="-304" y1="293" y2="75"></line><line x1="-111" x2="-304" y1="293" y2="-75"></line><line x1="-111" x2="-234" y1="293" y2="-208"></line><line x1="-111" x2="-111" y1="293" y2="-293"></line><line x1="-111" x2="38" y1="293" y2="-311"></line><line x1="-111" x2="178" y1="293" y2="-258"></line><line x1="-111" x2="277" y1="293" y2="-145"></line><line x1="-234" x2="-304" y1="208" y2="75"></line><line x1="-234" x2="-304" y1="208" y2="-75"></line><line x1="-234" x2="-234" y1="208" y2="-208"></line><line x1="-234" x2="-111" y1="208" y2="-293"></line><line x1="-234" x2="38" y1="208" y2="-311"></line><line x1="-234" x2="178" y1="208" y2="-258"></line><line x1="-234" x2="277" y1="208" y2="-145"></line><line x1="-304" x2="-304" y1="75" y2="-75"></line><line x1="-304" x2="-234" y1="75" y2="-208"></line><line x1="-304" x2="-111" y1="75" y2="-293"></line><line x1="-304" x2="38" y1="75" y2="-311"></line><line x1="-304" x2="178" y1="75" y2="-258"></line><line x1="-304" x2="277" y1="75" y2="-145"></line><line x1="-304" x2="-234" y1="-75" y2="-208"></line><line x1="-304" x2="-111" y1="-75" y2="-293"></line><line x1="-304" x2="38" y1="-75" y2="-311"></line><line x1="-304" x2="178" y1="-75" y2="-258"></line><line x1="-304" x2="277" y1="-75" y2="-145"></line><line x1="-234" x2="-111" y1="-208" y2="-293"></line><line x1="-234" x2="38" y1="-208" y2="-311"></line><line x1="-234" x2="178" y1="-208" y2="-258"></line><line x1="-234" x2="277" y1="-208" y2="-145"></line><line x1="-111" x2="38" y1="-293" y2="-311"></line><line x1="-111" x2="178" y1="-293" y2="-258"></line><line x1="-111" x2="277" y1="-293" y2="-145"></line><line x1="38" x2="178" y1="-311" y2="-258"></line><line x1="38" x2="277" y1="-311" y2="-145"></line><line x1="178" x2="277" y1="-258" y2="-145"></line></g></animateTransform></g></svg>